 <svg  version="1.0" xmlns="http://www.w3.org/2000/svg"  width="124.000000pt" height="118.000000pt" viewBox="0 0 124.000000 118.000000"  preserveAspectRatio="xMidYMid meet">  <g transform="translate(0.000000,118.000000) scale(0.100000,-0.100000)" fill="#ff7b00" stroke="none"> <path d="M271 961 c-79 -32 -82 -46 -82 -368 0 -308 -1 -301 72 -351 33 -23 35 -23 359 -22 453 2 430 -15 430 323 0 255 -3 268 -84 305 -41 20 -63 22 -200 22 -122 0 -156 3 -166 15 -6 8 -8 20 -4 26 4 7 3 9 -4 5 -6 -3 -17 2 -24 12 -24 34 -61 45 -158 48 -73 2 -105 -1 -139 -15z m250 -20 c14 -7 37 -30 50 -51 13 -21 33 -41 44 -44 11 -3 94 -6 183 -6 l164 0 34 -34 34 -34 0 -226 c0 -248 -3 -261 -60 -291 -40 -21 -644 -22 -693 -1 -67 28 -68 29 -67 348 l1 288 30 29 c16 16 42 32 57 34 49 9 196 0 223 -12z"/> <path d="M290 861 c-11 -21 -15 -497 -4 -525 5 -14 44 -16 334 -16 l328 0 6 23 c10 39 7 387 -4 408 -10 18 -23 19 -192 19 l-182 0 -51 55 -50 55 -87 0 c-76 0 -89 -2 -98 -19z m209 -31 c31 -47 66 -75 101 -80 19 -3 101 -5 183 -5 134 1 147 -1 147 -17 0 -10 1 -94 1 -188 0 -93 -1 -177 -1 -185 0 -13 -39 -15 -312 -13 l-313 3 -2 250 c-2 186 1 251 10 258 7 4 47 6 91 5 71 -3 80 -6 95 -28z"/> </g> </svg> 